<?xml version="1.0" encoding="UTF-8" standalone="no"?><!DOCTYPE svg PUBLIC "-//W3C//DTD SVG 1.1//EN" "http://www.w3.org/Graphics/SVG/1.1/DTD/svg11.dtd"><svg width="100%" height="100%" viewBox="0 0 784 85" version="1.1" xmlns="http://www.w3.org/2000/svg" xmlns:xlink="http://www.w3.org/1999/xlink" xml:space="preserve" xmlns:serif="http://www.serif.com/" style="fill-rule:evenodd;clip-rule:evenodd;stroke-linejoin:round;stroke-miterlimit:2;"><g id="logo-premiere-classe"><path d="M246.85,81.843l-12.604,0l0,-2.416c-0.009,-11.093 0.027,-22.191 -0.068,-33.289c-0.018,-2.344 -0.31,-4.728 -0.837,-7.012c-0.733,-3.167 -2.944,-4.974 -6.148,-5.652c-9.364,-1.975 -15.434,3.154 -15.589,13.51c-0.155,10.356 -0.041,20.713 -0.045,31.069l-0,3.736l-12.568,-0l-0,-2.671c-0,-10.575 0.009,-21.154 -0.009,-31.734c-0.005,-1.701 -0.069,-3.403 -0.223,-5.096c-0.628,-6.725 -4.064,-10.152 -12.104,-8.873c-5.692,0.91 -9.86,5.865 -10.147,12.154c-0.332,7.307 -0.186,14.638 -0.227,21.959c-0.023,4.723 -0.005,9.447 -0.005,14.306l-12.458,0l-0,-56.896l11.762,-0l-0,7.44c4.473,-5.779 10.019,-9.301 17.336,-9.356c7.162,-0.054 13.273,2.075 16.777,9.301c0.71,-0.796 1.324,-1.492 1.952,-2.184c6.716,-7.435 18.101,-9.469 27.01,-4.86c5.47,2.826 7.777,7.681 7.922,13.442c0.291,11.384 0.21,22.783 0.269,34.172c0.018,2.939 0.004,5.883 0.004,8.95" style="fill-rule:nonzero;"/><path d="M14.683,39.713c0.528,0.055 0.951,0.137 1.379,0.137c6.425,0.004 12.854,0.086 19.275,-0.028c9.723,-0.173 15.165,-7.148 13.131,-16.663c-1.06,-4.969 -4.036,-8.308 -9.077,-8.613c-8.091,-0.483 -16.217,-0.292 -24.33,-0.373c-0.114,-0.005 -0.223,0.163 -0.378,0.282l-0,25.258Zm-0.082,11.635l0,30.478l-13.705,-0l-0,-79.093c0.55,-0.054 1.11,-0.154 1.674,-0.154c11.458,-0.01 22.92,-0.16 34.373,0.086c3.781,0.077 7.717,0.683 11.275,1.925c9.665,3.39 14.688,11.808 14.37,23.079c-0.414,14.583 -9.119,23.115 -24.344,23.597c-7.016,0.219 -14.046,0.064 -21.068,0.082l-2.575,0" style="fill-rule:nonzero;"/><path d="M517.249,51.94l13.441,-0c-1.042,11.771 -5.679,21.3 -16.062,27.324c-16.518,9.578 -39.128,4.054 -48.838,-12.449c-9.355,-15.903 -9.492,-32.525 -0.25,-48.492c7.817,-13.514 20.435,-18.606 35.751,-17.3c6.675,0.569 12.864,2.648 18.224,6.802c6.461,5.01 10.083,11.617 11.002,20.226c-2.289,0 -4.486,-0.232 -6.62,0.046c-4.674,0.6 -7.486,-0.405 -9.424,-5.542c-2.976,-7.877 -11.649,-11.435 -20.899,-10.097c-8.85,1.283 -14.666,6.374 -17.833,14.451c-3.99,10.184 -3.995,20.554 0,30.732c4.309,10.985 14.147,16.4 25.564,14.161c8.641,-1.693 13.113,-7.658 15.17,-15.794c0.323,-1.279 0.496,-2.594 0.774,-4.068" style="fill-rule:nonzero;"/><path d="M597.961,54.145c-4.609,0.742 -9.241,1.379 -13.828,2.262c-2.584,0.5 -5.219,1.119 -7.603,2.197c-3.331,1.497 -4.487,4.514 -4.278,8.054c0.192,3.213 2.394,4.851 5.069,5.793c5.256,1.852 10.47,1.601 15.389,-1.17c2.735,-1.538 4.955,-3.722 5.192,-7.012c0.255,-3.494 0.059,-7.025 0.059,-10.124m-24.535,-12.236l-11.639,0c0.205,-6.142 2.739,-10.888 7.635,-14.36c4.182,-2.967 9.028,-3.922 14.006,-4.373c5.656,-0.51 11.239,-0.15 16.585,1.925c7.29,2.821 10.607,7.649 10.634,15.407c0.028,9.169 0.005,18.342 0.009,27.515c0,0.737 -0.022,1.484 0.055,2.216c0.278,2.685 0.992,3.326 3.654,3.349c0.723,0.009 1.451,0 2.302,0l0,8.464c-7.617,3.745 -14.119,1.897 -17.777,-5.047c-7.913,6.148 -16.827,8.232 -26.492,5.775c-13.041,-3.313 -14.588,-14.825 -11.612,-23.061c1.865,-5.169 6.047,-8.067 11.184,-9.164c6.275,-1.338 12.668,-2.093 19.007,-3.135c1.16,-0.191 2.32,-0.455 3.435,-0.819c2.321,-0.751 4.059,-2.057 4.355,-4.737c0.323,-2.921 -0.583,-5.237 -3.085,-6.857c-4.328,-2.799 -14.033,-2.603 -17.96,0.769c-1.734,1.492 -2.735,3.845 -4.296,6.133" style="fill-rule:nonzero;"/><path d="M143.912,48.199c-0.696,-9.601 -7.285,-15.753 -15.871,-15.011c-7.676,0.664 -13.988,7.735 -13.305,15.011l29.176,0Zm12.486,8.518l-41.949,0c0.296,6.289 1.884,11.749 7.522,14.861c5.583,3.081 11.466,2.972 16.845,-0.473c1.915,-1.224 3.039,-3.686 4.568,-5.542c0.41,-0.501 0.974,-1.215 1.488,-1.233c3.54,-0.109 7.085,-0.055 11.185,-0.055c-0.951,2.385 -1.579,4.582 -2.653,6.525c-4.355,7.89 -11.339,11.872 -20.108,12.723c-10.169,0.987 -19.165,-1.534 -25.586,-10.038c-8.813,-11.681 -7.612,-31.824 2.517,-42.349c7.116,-7.394 15.962,-9.701 25.804,-7.34c10.37,2.489 16.481,9.61 19.534,19.557c1.456,4.737 1.707,9.729 0.833,13.364" style="fill-rule:nonzero;"/><path d="M320.582,48.16c-0.864,-9.506 -6.907,-15.344 -15.293,-14.993c-7.863,0.327 -13.951,6.775 -14.042,14.993l29.335,-0Zm12.682,8.54l-41.876,0c-0.601,10.034 5.87,16.322 13.4,16.827c6.826,0.455 12.445,-1.415 15.408,-8.254c0.186,-0.428 0.791,-0.946 1.21,-0.955c3.599,-0.073 7.203,-0.041 11.039,-0.041c-1.338,6.238 -4.487,10.993 -9.415,14.519c-17.318,12.386 -41.116,2.162 -44.019,-18.86c-1.224,-8.851 -0.218,-17.273 4.769,-24.895c10.852,-16.594 35.078,-16.117 45.234,0.906c3.754,6.293 5.114,13.141 4.25,20.753" style="fill-rule:nonzero;"/><path d="M413.686,48.169c-0.091,-8.582 -6.457,-15.107 -14.561,-15.02c-8.267,0.091 -14.752,6.689 -14.633,15.02l29.194,0Zm12.695,8.55l-41.816,0c-0.51,9.783 5.719,16.376 13.691,16.827c6.766,0.382 12.263,-1.574 15.18,-8.304c0.191,-0.446 0.937,-0.915 1.438,-0.929c3.467,-0.081 6.939,-0.04 10.625,-0.04c-0.096,0.682 -0.114,1.242 -0.26,1.76c-2.885,10.248 -12.24,17.196 -23.766,17.674c-17.268,0.719 -29.007,-10.252 -29.676,-27.552c-0.323,-8.318 1.183,-16.099 6.375,-22.76c6.843,-8.778 16.048,-11.972 26.782,-9.82c10.816,2.166 17.282,9.396 20.44,19.707c1.31,4.264 1.802,8.668 0.987,13.437" style="fill-rule:nonzero;"/><path d="M741.326,48.102l29.322,-0c-0.892,-9.483 -6.912,-15.293 -15.307,-14.939c-7.858,0.333 -13.988,6.839 -14.015,14.939m41.43,16.171c-0.91,2.326 -1.502,4.46 -2.539,6.357c-4.682,8.582 -12.318,12.527 -21.768,13.037c-17.241,0.932 -29.09,-10.134 -29.795,-27.393c-0.342,-8.395 1.169,-16.249 6.443,-22.965c6.871,-8.755 16.099,-11.908 26.819,-9.715c10.798,2.207 17.245,9.465 20.362,19.789c1.288,4.264 1.798,8.655 0.956,13.278l-41.689,-0c-1.689,7.394 4.522,15.744 12.576,16.754c6.821,0.855 13.091,-0.983 16.113,-8.068c0.2,-0.468 0.901,-1.014 1.378,-1.028c3.545,-0.087 7.085,-0.046 11.144,-0.046" style="fill-rule:nonzero;"/><path d="M618.64,63.939l12.259,0c0.113,0.105 0.3,0.192 0.318,0.301c0.765,5.647 4.396,8.236 9.669,9.059c4.018,0.624 7.977,0.332 11.776,-1.115c2.412,-0.919 4.182,-2.52 4.332,-5.346c0.141,-2.748 -1.074,-4.983 -3.531,-5.865c-4.277,-1.538 -8.727,-2.608 -13.109,-3.845c-3.335,-0.942 -6.775,-1.597 -10.006,-2.812c-8.463,-3.181 -12.267,-10.593 -9.956,-18.952c1.11,-4.022 3.759,-6.962 7.372,-8.727c9.91,-4.837 20.102,-5.179 30.136,-0.519c5.924,2.744 8.996,7.84 9.746,14.465l-13.054,0c-1.247,-5.888 -5.775,-7.217 -10.862,-7.362c-2.393,-0.073 -4.864,0.35 -7.198,0.942c-2.157,0.55 -3.863,1.947 -4.077,4.432c-0.214,2.429 0.978,4.295 3.094,5.16c3.121,1.269 6.375,2.247 9.628,3.157c4.469,1.256 9.078,2.075 13.469,3.55c6.02,2.011 10.206,5.974 10.87,12.663c0.701,7.071 -1.938,12.795 -8.163,16.212c-10.579,5.811 -21.672,6.098 -32.588,1.106c-6.744,-3.085 -9.906,-8.941 -10.125,-16.504" style="fill-rule:nonzero;"/><path d="M722.251,40.617l-13.068,0c-0.733,-3.394 -2.662,-5.76 -6.193,-6.693c-4.505,-1.188 -8.969,-1.274 -13.178,0.837c-3.608,1.806 -3.972,6.425 -0.441,8.395c3.153,1.757 6.803,2.703 10.311,3.736c4.527,1.324 9.219,2.116 13.678,3.617c6.024,2.034 10.142,6.052 10.766,12.746c0.641,6.889 -2.016,12.313 -7.886,15.966c-6.616,4.118 -13.978,4.928 -21.563,4.332c-4.228,-0.332 -8.327,-1.265 -12.049,-3.422c-6.143,-3.562 -9.169,-8.964 -9.41,-16.167l12.385,0c2.38,7.331 5.693,9.788 13.533,9.551c2.762,-0.086 5.578,-0.628 8.236,-1.424c2.357,-0.705 4.04,-2.434 4.209,-5.164c0.168,-2.74 -0.979,-5.01 -3.449,-5.907c-4.273,-1.551 -8.714,-2.634 -13.096,-3.881c-3.335,-0.942 -6.775,-1.588 -10.01,-2.789c-8.496,-3.163 -12.323,-10.516 -10.061,-18.897c1.087,-4.041 3.713,-6.994 7.317,-8.769c9.974,-4.914 20.235,-5.237 30.332,-0.509c5.828,2.73 8.863,7.799 9.637,14.442" style="fill-rule:nonzero;"/><rect x="539.277" y="2.679" width="12.213" height="79.124"/><path d="M70.628,24.867l11.703,0l-0,10.352c5.36,-9.728 13.373,-13.96 21.604,-11.644l0,11.731c-0.655,-0.032 -1.233,-0.014 -1.797,-0.096c-9.442,-1.338 -16.322,3.386 -18.337,12.818c-0.537,2.503 -0.674,5.128 -0.701,7.704c-0.087,7.758 -0.032,15.525 -0.032,23.288l0,2.798l-12.44,0l-0,-56.951Z" style="fill-rule:nonzero;"/><path d="M340.491,24.867l11.703,-0l0,10.351c5.374,-9.737 13.369,-13.955 21.605,-11.644l-0,11.731c-0.655,-0.032 -1.233,-0.014 -1.793,-0.091c-9.446,-1.343 -16.322,3.376 -18.342,12.809c-0.537,2.507 -0.674,5.132 -0.701,7.703c-0.086,7.763 -0.032,15.526 -0.032,23.293l0,2.798l-12.44,0l-0,-56.95Z" style="fill-rule:nonzero;"/><rect x="257.831" y="24.934" width="12.213" height="56.933"/><rect x="257.822" y="2.72" width="12.272" height="11.667"/></g></svg>