<svg width="500" height="97" viewBox="0 0 500 97" fill="none" xmlns="http://www.w3.org/2000/svg">
<g clip-path="url(#clip0_12_202)">
<path d="M13.551 0.138909C9.33366 0.416774 6.12951 1.78084 3.54592 4.40792C1.88685 6.10037 0.987662 7.66651 0.35443 9.97784C-0.0381741 11.4303 -0.0635034 14.4995 0.303771 15.8509C0.835686 17.8086 1.54491 19.1726 2.91269 20.8777C4.95169 23.429 8.23183 25.5761 13.1331 27.597C16.0206 28.7969 18.0469 30.3251 18.8195 31.8913C19.1108 32.4975 19.1994 32.8511 19.2374 33.6974C19.2754 34.6699 19.2501 34.8088 18.8701 35.5666C17.781 37.7769 15.0327 38.3327 11.2713 37.1202C10.0935 36.7413 7.8519 35.6298 6.52211 34.7836C5.47094 34.1015 5.31897 34.051 4.66041 34.0384C4.0525 34.0384 3.88786 34.0889 3.62191 34.3541C3.27996 34.7078 0.16446 40.1514 0.0504783 40.6061C-0.0635034 41.0482 0.303771 41.6039 1.17763 42.3238C3.67257 44.4078 6.91471 45.7971 10.8281 46.4918C13.1837 46.9086 17.0718 46.9086 18.9588 46.5044C23.1508 45.595 26.4816 43.4226 28.5712 40.2272C29.3565 39.0273 29.7871 38.0801 30.2303 36.6276C30.6609 35.1751 30.7749 32.6491 30.4709 31.0198C29.4704 25.7277 25.4937 21.825 17.9836 18.7558C13.7663 17.0381 11.6513 15.6235 10.8281 13.9816C10.4102 13.1354 10.3848 11.8345 10.7774 11.0261C11.0687 10.4199 11.8666 9.71261 12.5885 9.40948C14.8808 8.44959 18.3129 9.38422 22.5935 12.125C24.9112 13.6027 25.0251 13.5522 27.6594 9.63683C29.3438 7.12341 29.5464 6.76977 29.5591 6.27719C29.5718 5.97407 29.4958 5.58253 29.3944 5.40571C29.1665 4.96365 26.8235 3.43539 24.9998 2.52602C22.4289 1.25037 19.3007 0.340993 16.9704 0.18943C16.3752 0.15154 15.666 0.101019 15.3874 0.0757584C15.1087 0.0631282 14.2855 0.0883887 13.551 0.138909Z" fill="black"/>
<path d="M107.65 0.126321C104.458 0.341035 101.773 1.04833 98.8478 2.46291C88.3741 7.52762 83.245 19.8168 86.9557 30.944C88.9187 36.8423 93.06 41.6039 98.6072 44.3826C110.297 50.2177 124.722 45.3425 130.319 33.6469C135.043 23.7701 132.219 11.7335 123.607 5.02684C119.998 2.22294 115.35 0.416816 111.145 0.176842C110.512 0.151581 109.765 0.101061 109.486 0.0758002C109.207 0.06317 108.384 0.0884304 107.65 0.126321ZM111.069 10.6725C116.515 11.4935 120.872 15.7246 121.91 21.1809C122.214 22.8481 122.1 25.4499 121.657 26.9655C120.58 30.5651 118.225 33.3817 114.869 35.0615C111.019 36.9813 106.269 36.8044 102.622 34.6068C100.203 33.1417 98.6958 31.4871 97.442 28.8853C96.5302 26.9781 96.3402 26.0688 96.3275 23.5554C96.3149 21.0546 96.5302 20.0568 97.442 18.1117C98.7591 15.3331 100.697 13.3123 103.344 11.9482C105.864 10.6599 108.334 10.2557 111.069 10.6725Z" fill="black"/>
<path d="M287.741 0.138935C280.256 0.593623 273.341 4.74896 269.377 11.1777C268.035 13.3501 266.869 16.3435 266.325 19.0211C265.932 20.9535 265.844 24.7426 266.135 26.776C267.262 34.5563 271.999 41.0987 278.939 44.4583C284.651 47.2244 291.097 47.6033 297.163 45.5066C304.369 43.0311 309.98 36.9939 311.918 29.6557C312.412 27.7738 312.551 26.9781 312.69 25.071C313.083 19.5516 311.373 13.7922 308.03 9.37162C306.51 7.33815 304.319 5.30469 302.14 3.87748C299.076 1.85664 294.744 0.378909 291.388 0.189456C290.742 0.151566 289.982 0.101045 289.704 0.0757844C289.425 0.0631542 288.539 0.0884146 287.741 0.138935ZM292.49 10.9251C298.455 12.4281 302.685 18.2507 302.254 24.3384C301.875 29.7947 298.164 34.3163 292.743 35.9456C291.692 36.2613 291.426 36.2992 289.387 36.2992C287.462 36.2992 287.032 36.274 286.094 36.0087C283.739 35.3772 281.7 34.1395 279.914 32.2828C276.976 29.1884 275.785 25.0078 276.659 20.8398C277.786 15.5478 282.13 11.4682 287.563 10.6094C288.792 10.4199 291.072 10.5589 292.49 10.9251Z" fill="black"/>
<path d="M447.948 0.138917C442.186 0.517823 436.575 3.13228 432.611 7.30024C422.505 17.8844 424.379 34.9225 436.563 42.968C439.273 44.7614 442.629 46.0497 446.137 46.6181C447.669 46.8707 451.899 46.8328 453.457 46.5549C457.852 45.7592 461.461 44.0415 464.615 41.2755C465.615 40.3914 465.793 40.1388 465.805 39.5704C465.805 39.0905 465.869 39.1663 462.601 35.6803C461.36 34.3668 460.169 33.2048 459.954 33.1164C459.448 32.9017 459.106 33.028 458.067 33.7858C457.092 34.5057 455.408 35.3519 454.28 35.7182C452.609 36.2487 452.102 36.3118 449.911 36.2992C447.391 36.2992 446.479 36.0971 444.554 35.1751C443.06 34.4552 442.426 34.0258 441.198 32.8512C438.336 30.123 436.854 26.0182 437.284 21.9513C437.462 20.1325 437.816 18.7937 438.5 17.3539C439.273 15.7372 439.957 14.7647 441.223 13.5143C442.996 11.7461 445.162 10.5967 447.505 10.1673C449.063 9.87681 451.887 9.96522 453.331 10.3568C455.091 10.8241 457.041 11.8471 458.472 13.0344C458.916 13.4133 459.156 13.5143 459.549 13.5143C460.03 13.5143 460.131 13.4259 462.677 10.8367C465.463 7.99491 465.805 7.57811 465.805 7.0729C465.793 6.55506 465.527 6.22668 464.399 5.29204C460.714 2.2229 456.357 0.442042 451.937 0.189437C451.241 0.151547 450.392 0.101026 450.038 0.0757655C449.696 0.0631353 448.746 0.0883957 447.948 0.138917Z" fill="black"/>
<path d="M371.365 0.505201C371.213 0.568352 370.985 0.770435 370.859 0.972519C370.643 1.3009 370.631 2.15976 370.567 17.6191L370.504 33.9121L370.111 34.7331C369.668 35.6424 368.997 36.3876 368.224 36.7918C367.832 37.0065 367.49 37.0697 366.705 37.0697C365.464 37.0697 364.729 36.8171 363.83 36.0592C363.095 35.4277 362.614 35.2762 362.171 35.5161C361.993 35.6046 360.778 36.7286 359.46 38.0169C356.37 41.0229 356.37 41.0608 358.143 42.8164C359.79 44.4583 361.385 45.4056 363.551 46.0497C364.501 46.3276 364.995 46.3908 366.705 46.4413C368.44 46.4918 368.921 46.4665 370.035 46.2392C375.114 45.1909 378.711 42.1217 380.243 37.5243C381.092 34.9478 381.079 35.4404 381.079 17.5307C381.079 5.29205 381.041 1.32616 380.927 1.07356C380.623 0.404159 380.433 0.378899 375.861 0.391529C373.544 0.391529 371.517 0.44205 371.365 0.505201Z" fill="black"/>
<path d="M39.2481 1.1241L38.8809 1.49038V23.4669V45.4309L39.1848 45.7593C39.3495 45.9361 39.6281 46.1255 39.7927 46.1634C39.9447 46.2013 41.9457 46.2266 44.2253 46.2013L48.3793 46.1634L48.7213 45.8098L49.0759 45.4688L49.1139 36.6908L49.1392 27.9128H58.3844H67.6296L67.6549 36.6908L67.6929 45.4688L68.0475 45.8098L68.3895 46.1634L72.5435 46.2013C74.8231 46.2266 76.8241 46.2013 76.9761 46.1634C77.1407 46.1255 77.4194 45.9361 77.584 45.7593L77.888 45.4309V23.4669V1.49038L77.5207 1.1241L77.1534 0.757827H72.8221C69.9726 0.757827 68.4148 0.808348 68.2375 0.89676C67.6423 1.21251 67.6296 1.33882 67.6296 10.1042V18.3138H58.3844H49.1392V10.1168C49.1392 4.61004 49.0886 1.80613 48.9999 1.5409C48.734 0.757827 48.7086 0.757827 43.9467 0.757827H39.6154L39.2481 1.1241Z" fill="black"/>
<path d="M140.818 1.12409L140.451 1.49037V23.3659C140.451 47.1486 140.413 45.7466 141.147 46.075C141.59 46.2771 149.468 46.2897 149.86 46.0876C150.012 46.0119 150.24 45.8224 150.354 45.6708C150.557 45.4309 150.582 44.7994 150.582 37.5496V29.6936L155.18 29.6557C159.726 29.6052 159.777 29.6052 161.031 29.2516C164.045 28.4306 166.78 26.6624 168.68 24.3132C172.657 19.3747 173.062 12.605 169.668 7.41394C167.515 4.11745 164.095 1.7935 160.245 1.02305C159.03 0.770449 158.548 0.757819 150.076 0.757819H141.185L140.818 1.12409ZM159.068 10.8241C160.081 11.3167 160.993 12.2008 161.449 13.1354C161.752 13.7543 161.79 13.969 161.79 15.1563C161.79 16.4066 161.765 16.5456 161.385 17.316C160.866 18.3517 159.979 19.2106 158.84 19.741L157.991 20.1452L154.293 20.1831L150.582 20.2336V15.2826V10.3441L154.42 10.382L158.244 10.4199L159.068 10.8241Z" fill="black"/>
<path d="M178.989 1.06092L178.635 1.36404L178.597 23.3532L178.571 45.3298L178.939 45.7466L179.306 46.1634L183.498 46.2013C187.145 46.2265 187.74 46.2139 188.082 46.0371C188.842 45.6456 188.83 45.7213 188.83 37.3223V29.681H192.958C196.631 29.681 197.226 29.6557 198.366 29.4157C205.192 28.039 210.106 22.0144 210.106 15.0426C210.106 8.34855 205.116 2.38709 198.366 1.02303C197.138 0.770424 196.682 0.757793 188.209 0.757793H179.344L178.989 1.06092ZM197.214 10.8367C198.239 11.3419 199.075 12.125 199.557 13.0217C199.886 13.6532 199.911 13.8174 199.911 15.0931C199.911 16.3435 199.873 16.5582 199.569 17.215C199.063 18.2759 198.125 19.1979 197.024 19.7157L196.112 20.1452L192.477 20.1831L188.83 20.2336V15.2825V10.3441L192.604 10.382L196.365 10.4199L197.214 10.8367Z" fill="black"/>
<path d="M217.249 0.947242C217.097 1.04828 216.92 1.28826 216.832 1.47771C216.73 1.74294 216.692 7.42654 216.718 23.6437L216.756 45.4687L217.11 45.8097L217.452 46.1634H231.447H245.441L245.783 45.8097L246.138 45.4687L246.176 41.7049C246.201 39.2294 246.176 37.7896 246.074 37.4864C245.808 36.5897 246.264 36.6276 236.069 36.6276H226.951V32.2702V27.9127L234.613 27.8875L242.275 27.8496L242.617 27.4959L242.971 27.1549L243.009 23.4543C243.06 19.4758 242.997 19.0084 242.439 18.579C242.123 18.3138 241.984 18.3138 234.537 18.3138H226.951V14.3353V10.3567H235.98C244.314 10.3567 245.036 10.3441 245.441 10.1294C246.176 9.76313 246.201 9.66209 246.201 5.51938C246.201 1.5156 246.163 1.19985 245.58 0.884091C245.416 0.795679 240.717 0.757789 231.421 0.757789C219.428 0.757789 217.477 0.783049 217.249 0.947242Z" fill="black"/>
<path d="M320.985 1.06094C320.821 1.22513 320.656 1.55352 320.605 1.78086C320.567 2.02083 320.555 11.9482 320.567 23.8332L320.605 45.4687L320.96 45.8098L321.302 46.1634L329.888 46.2013C335.664 46.2266 338.868 46.1887 339.716 46.1003C343.25 45.6961 346.112 44.4204 348.455 42.1849C350.734 40.0125 351.988 37.3602 352.166 34.291C352.33 31.4745 351.444 29.1505 349.405 26.9781C348.214 25.7277 346.77 24.6668 344.997 23.7701C344.263 23.3911 343.63 23.0628 343.617 23.0501C343.592 23.0249 343.794 22.8859 344.085 22.747C344.972 22.2923 347.074 20.6251 347.948 19.6905C349.392 18.1243 350.291 16.5961 350.76 14.8784C351.051 13.8427 351.051 11.6324 350.76 10.4452C349.595 5.59518 345.327 1.91979 339.704 0.947267C338.817 0.795704 337.069 0.757813 329.952 0.757813H321.289L320.985 1.06094ZM337.069 10.2936C338.057 10.5462 339.032 11.2283 339.59 12.0366C340.185 12.9207 340.337 13.527 340.286 14.79C340.248 15.6615 340.172 15.9898 339.868 16.5835C339.412 17.4802 338.5 18.3517 337.538 18.7938C336.829 19.1221 336.753 19.1348 333.814 19.1727L330.8 19.2232V14.6637V10.1042H333.561C335.626 10.1042 336.512 10.1547 337.069 10.2936ZM337.652 27.9128C339.108 28.3548 340.324 29.3273 340.932 30.5146C341.198 31.0451 341.249 31.3103 341.249 32.2702C341.249 33.2427 341.198 33.5079 340.907 34.1268C340.476 35.0615 339.552 35.9708 338.589 36.4508L337.829 36.8171L334.321 36.8549L330.8 36.8928V32.2828V27.6602H333.827C336.474 27.6602 336.955 27.6854 337.652 27.9128Z" fill="black"/>
<path d="M391.73 1.02302C391.578 1.16195 391.401 1.42718 391.325 1.60401C391.262 1.79346 391.211 10.3441 391.211 23.4669C391.211 43.7384 391.224 45.0519 391.439 45.4687C391.553 45.7087 391.794 45.9739 391.971 46.0623C392.224 46.1886 395.226 46.2139 406.13 46.1886L419.985 46.1634L420.352 45.7466L420.732 45.3298L420.694 41.2881L420.656 37.2338L420.302 36.9307L419.947 36.6276H410.702H401.469V32.2702V27.9127H409.081H416.692L417.123 27.4833L417.553 27.0539V23.1133V19.1726L417.123 18.7432L416.692 18.3138H409.081H401.469V14.3353V10.3567L410.727 10.3315L419.985 10.2936L420.352 9.87679L420.732 9.46L420.694 5.41833L420.656 1.36403L420.302 1.06091L419.947 0.757782H405.978H392.021L391.73 1.02302Z" fill="black"/>
<path d="M468.984 1.02306C468.832 1.16199 468.655 1.42723 468.579 1.60405C468.516 1.76824 468.465 3.52384 468.465 5.50679C468.465 8.37384 468.503 9.19481 468.655 9.54845C468.984 10.3315 469.136 10.3568 474.417 10.3568H479.103V27.9001V45.4309L479.407 45.7593C479.572 45.9361 479.85 46.1255 480.015 46.1634C480.167 46.2013 482.181 46.2266 484.46 46.2013L488.627 46.1634L488.994 45.7466L489.362 45.3425V27.8496V10.3568H494.085C498.315 10.3568 498.847 10.3315 499.24 10.1294C499.974 9.7758 500.025 9.43478 499.974 5.20366L499.936 1.49038L499.519 1.1241L499.113 0.757827H484.194H469.275L468.984 1.02306Z" fill="black"/>
<path d="M231.472 71.7648C231.231 71.9543 220.238 95.6486 220.238 96.0022C220.238 96.1285 220.378 96.3306 220.542 96.4443C220.808 96.6085 221.163 96.6337 222.632 96.5958C224.342 96.5579 224.43 96.5453 224.709 96.2422C224.874 96.0654 225.405 95.0549 225.874 93.994L226.748 92.0742L231.991 92.0995L237.247 92.1374L238.146 94.1203C238.653 95.2191 239.147 96.2169 239.273 96.3306C239.463 96.52 239.792 96.5579 241.388 96.5958C243.161 96.6337 243.288 96.6211 243.541 96.3685C243.719 96.1917 243.782 96.0148 243.719 95.838C243.541 95.2697 232.852 72.0427 232.675 71.828C232.447 71.5754 231.776 71.5375 231.472 71.7648ZM233.789 84.4203C234.701 86.4285 235.423 88.0831 235.398 88.121C235.373 88.1462 233.815 88.1462 231.928 88.1336L228.508 88.0957L230.218 84.2687C231.345 81.7553 231.966 80.4923 232.029 80.606C232.08 80.707 232.878 82.4247 233.789 84.4203Z" fill="black"/>
<path d="M285.942 71.7396C284.08 72.0806 282.738 72.7121 281.674 73.7604C280.42 74.9982 279.761 76.5896 279.761 78.4336C279.761 81.6669 281.699 83.9783 285.942 85.8223C288.994 87.1358 290.311 88.121 290.64 89.3335C291.084 90.8744 290.222 92.2763 288.563 92.7184C287.297 93.072 285.245 92.5037 283.244 91.2533C281.927 90.4323 281.56 90.3818 281.117 90.9628C280.635 91.6069 279.635 93.4004 279.635 93.6278C279.635 93.9814 281.053 95.0929 282.231 95.6738C284.739 96.899 288.057 97.2653 290.501 96.558C293.655 95.6486 295.846 92.9584 295.846 89.9903C295.846 88.3231 295.39 86.9969 294.402 85.8223C293.097 84.2561 291.793 83.4099 288.424 81.9701C285.891 80.8839 284.789 79.9871 284.447 78.7115C284.08 77.3095 285.258 75.9076 287.006 75.7055C288.133 75.5792 290.02 76.1981 291.831 77.3095C292.895 77.9663 293.11 77.8653 294.224 76.1854C295.2 74.7077 295.238 74.4425 294.604 73.912C294.034 73.432 291.552 72.2701 290.463 71.9922C289.336 71.6891 286.917 71.5501 285.942 71.7396Z" fill="black"/>
<path d="M204.243 72.2195C204.04 72.4342 204.027 73.4573 204.027 84.2814C204.027 95.9517 204.027 96.1159 204.281 96.3685C204.509 96.5958 204.699 96.6211 206.307 96.6211C208.029 96.6211 208.105 96.6085 208.397 96.3053L208.713 96.0022V91.8216V87.6536H211.348C214.324 87.6536 215.046 87.5273 216.553 86.8074C217.87 86.1885 219.364 84.6855 220.01 83.3594C221.163 81.0354 221.163 78.5094 220.035 76.2486C219.453 75.0992 217.87 73.4952 216.73 72.9016C215.122 72.068 214.552 71.9922 209.22 71.9922C204.762 71.9922 204.433 72.0048 204.243 72.2195ZM214.159 76.6148C214.932 76.9685 215.489 77.4611 215.907 78.1684C216.198 78.6736 216.249 78.8883 216.249 79.7598C216.249 80.6565 216.211 80.846 215.856 81.4648C215.641 81.8437 215.223 82.349 214.932 82.5637C214.07 83.2204 213.387 83.3594 210.904 83.3594H208.713V79.8103V76.2612L211.158 76.3117C213.26 76.3622 213.665 76.4001 214.159 76.6148Z" fill="black"/>
<path d="M247.037 72.1817C246.859 72.3711 246.834 73.4952 246.834 84.3067V96.2296L247.113 96.419C247.518 96.7095 250.709 96.7095 251.115 96.419L251.393 96.2296V91.6196V87.0222H253.356H255.319L257.662 91.6953C259.055 94.474 260.094 96.4064 260.246 96.4948C260.385 96.5706 261.322 96.6211 262.437 96.6211C264.552 96.6211 264.944 96.5201 264.944 95.9391C264.944 95.7749 263.868 93.6404 262.538 91.2028C261.221 88.7525 260.132 86.7317 260.132 86.7064C260.132 86.6811 260.55 86.4285 261.069 86.1507C264.881 84.0667 266.287 79.9113 264.45 76.2233C263.551 74.4172 262.057 73.1037 260.132 72.3964L259.182 72.0554L253.217 72.0175C247.847 71.9796 247.227 72.0048 247.037 72.1817ZM258.713 76.6149C261.31 77.9031 261.234 81.5659 258.587 82.8416C258.055 83.0942 257.84 83.1068 254.775 83.1068H251.52V79.6966V76.2865H254.787C258.055 76.2865 258.055 76.2865 258.713 76.6149Z" fill="black"/>
<path d="M270.479 72.2195C270.276 72.4342 270.264 73.4573 270.264 84.3445V96.2296L270.542 96.419C270.77 96.5832 271.201 96.6211 272.581 96.6211C274.266 96.6211 274.342 96.6085 274.633 96.3053L274.95 96.0022V84.2814C274.95 73.8741 274.924 72.5227 274.747 72.2701C274.57 72.0048 274.481 71.9922 272.619 71.9922C270.91 71.9922 270.656 72.0174 270.479 72.2195Z" fill="black"/>
</g>
<defs>
<clipPath id="clip0_12_202">
<rect width="500" height="97" fill="white"/>
</clipPath>
</defs>
</svg>
