<?xml version="1.0" encoding="UTF-8"?>
<svg id="Calque_2" xmlns="http://www.w3.org/2000/svg" viewBox="0 0 244.12 35.83"><g id="Calque_1-2"><g><path d="m7.73,13.5c-.47.18-1.01.28-1.63.28s-1.13-.09-1.62-.27c-.48-.18-.86-.45-1.16-.82-.3-.36-.47-.82-.51-1.37H0c.04,1.05.31,1.93.82,2.66.51.73,1.21,1.28,2.11,1.66.9.38,1.97.57,3.19.57s2.34-.2,3.22-.58c.89-.39,1.57-.94,2.05-1.64.47-.7.71-1.52.71-2.44,0-.68-.13-1.28-.38-1.79-.26-.51-.61-.94-1.05-1.3-.44-.36-.93-.66-1.49-.89-.55-.24-1.12-.42-1.72-.56l-1.48-.37c-.32-.08-.64-.17-.96-.28s-.61-.25-.87-.42c-.26-.17-.47-.37-.62-.62-.15-.24-.22-.53-.22-.85,0-.39.12-.75.35-1.05.23-.31.55-.55.98-.73.43-.18.94-.27,1.53-.27.85,0,1.53.19,2.06.56.53.37.84.9.91,1.57h2.75c-.02-.89-.26-1.67-.75-2.35-.48-.69-1.15-1.22-1.99-1.61-.84-.39-1.82-.58-2.94-.58s-2.09.19-2.96.58c-.87.38-1.56.93-2.07,1.62-.5.7-.75,1.51-.75,2.44,0,1.13.37,2.03,1.12,2.72.75.68,1.78,1.18,3.08,1.52l1.79.46c.56.14,1.06.31,1.48.49.43.18.76.41.99.68.24.27.36.61.36,1.02,0,.45-.14.85-.41,1.18-.27.33-.64.6-1.11.78Z"/><path d="m18.48.22l-5.55,15.76h3.05l1.3-3.89h5.92l1.31,3.89h3.05L22,.22h-3.52Zm-.43,9.58l2.13-6.35h.12l2.13,6.35h-4.39Z"/><polygon points="39 13.58 32.06 13.58 32.06 .22 29.2 .22 29.2 15.97 39 15.97 39 13.58"/><path d="m50.97,15.23c1.09-.64,1.95-1.56,2.59-2.77.64-1.21.95-2.67.95-4.36s-.32-3.15-.95-4.36c-.63-1.21-1.49-2.14-2.59-2.78-1.09-.64-2.32-.96-3.7-.96s-2.62.32-3.71.96c-1.09.64-1.95,1.57-2.59,2.78-.63,1.21-.95,2.66-.95,4.36s.32,3.14.95,4.36c.64,1.21,1.5,2.13,2.59,2.78,1.09.64,2.33.96,3.71.96s2.61-.32,3.7-.96Zm-7.52-4.1c-.37-.83-.55-1.84-.55-3.03s.18-2.2.55-3.02c.37-.83.89-1.45,1.55-1.87.66-.43,1.41-.64,2.27-.64s1.61.21,2.27.64c.66.42,1.17,1.04,1.54,1.87.37.82.56,1.83.56,3.02s-.19,2.21-.56,3.03c-.37.82-.88,1.44-1.54,1.87-.66.42-1.41.63-2.27.63s-1.61-.21-2.27-.63c-.66-.43-1.17-1.05-1.55-1.87Z"/><polygon points="69.73 15.97 69.73 .22 66.89 .22 66.89 10.96 66.75 10.96 59.33 .22 56.77 .22 56.77 15.97 59.63 15.97 59.63 5.24 59.76 5.24 67.19 15.97 69.73 15.97"/><rect x="77.34" y=".22" width="2.86" height="15.76"/><polygon points="85.71 5.24 85.84 5.24 93.27 15.97 95.81 15.97 95.81 .22 92.97 .22 92.97 10.96 92.83 10.96 85.41 .22 82.86 .22 82.86 15.97 85.71 15.97 85.71 5.24"/><polygon points="102.66 15.97 105.5 15.97 105.5 2.61 110.37 2.61 110.37 .22 97.79 .22 97.79 2.61 102.66 2.61 102.66 15.97"/><polygon points="122.67 13.58 115.21 13.58 115.21 9.28 122.08 9.28 122.08 6.89 115.21 6.89 115.21 2.61 122.61 2.61 122.61 .22 112.36 .22 112.36 15.97 122.67 15.97 122.67 13.58"/><path d="m127.94,10.2h2.91l3.1,5.77h3.19l-3.41-6.25c.1-.04.21-.08.31-.12.83-.41,1.46-.98,1.89-1.72.43-.74.65-1.62.65-2.63s-.21-1.89-.64-2.64c-.42-.76-1.04-1.35-1.87-1.77-.82-.42-1.84-.63-3.05-.63h-5.91v15.76h2.86v-5.77Zm2.62-7.6c.71,0,1.3.11,1.75.32.45.21.79.51,1.01.91.22.39.33.87.33,1.43s-.11,1.03-.33,1.42c-.22.38-.55.67-1,.87-.45.19-1.03.29-1.74.29h-2.63V2.6h2.62Z"/><polygon points="141.6 5.24 141.73 5.24 149.16 15.97 151.7 15.97 151.7 .22 148.86 .22 148.86 10.96 148.72 10.96 141.3 .22 138.75 .22 138.75 15.97 141.6 15.97 141.6 5.24"/><path d="m158.9.22l-5.55,15.76h3.05l1.3-3.89h5.92l1.31,3.89h3.05L162.42.22h-3.52Zm-.43,9.58l2.13-6.35h.12l2.13,6.35h-4.39Z"/><polygon points="167.02 2.61 171.89 2.61 171.89 15.97 174.73 15.97 174.73 2.61 179.6 2.61 179.6 .22 167.02 .22 167.02 2.61"/><rect x="181.59" y=".22" width="2.85" height="15.76"/><path d="m197.64.96c-1.09-.64-2.32-.96-3.7-.96s-2.62.32-3.71.96c-1.09.64-1.95,1.57-2.59,2.78-.63,1.21-.95,2.66-.95,4.36s.32,3.14.95,4.36c.64,1.21,1.5,2.13,2.59,2.78,1.09.64,2.33.96,3.71.96s2.61-.32,3.7-.96c1.09-.64,1.95-1.56,2.59-2.77.64-1.21.95-2.67.95-4.36s-.32-3.15-.95-4.36c-.63-1.21-1.49-2.14-2.59-2.78Zm.11,10.16c-.37.82-.88,1.44-1.54,1.87-.66.42-1.41.63-2.27.63s-1.61-.21-2.27-.63c-.66-.43-1.17-1.05-1.55-1.87-.37-.83-.55-1.84-.55-3.03s.18-2.2.55-3.02c.37-.83.89-1.45,1.55-1.87.66-.43,1.41-.64,2.27-.64s1.61.21,2.27.64c.66.42,1.17,1.04,1.54,1.87.37.82.56,1.83.56,3.02s-.19,2.21-.56,3.03Z"/><polygon points="213.56 10.96 213.42 10.96 206 .22 203.45 .22 203.45 15.97 206.3 15.97 206.3 5.24 206.43 5.24 213.86 15.97 216.4 15.97 216.4 .22 213.56 .22 213.56 10.96"/><path d="m223.6.22l-5.55,15.76h3.05l1.3-3.89h5.92l1.31,3.89h3.05L227.12.22h-3.52Zm-.43,9.58l2.13-6.35h.12l2.13,6.35h-4.38Z"/><polygon points="237.18 13.58 237.18 .22 234.32 .22 234.32 15.97 244.12 15.97 244.12 13.58 237.18 13.58"/><path d="m10.05,20.8c-1.12-.63-2.47-.95-4.03-.95H.57v15.76h5.34c1.6,0,2.97-.32,4.11-.95,1.14-.63,2.02-1.54,2.62-2.72.61-1.18.92-2.59.92-4.23s-.3-3.04-.91-4.22-1.47-2.08-2.6-2.7Zm.12,9.93c-.37.8-.92,1.4-1.65,1.81-.73.4-1.65.6-2.75.6h-2.35v-10.82h2.43c1.07,0,1.96.2,2.68.6.72.4,1.27.99,1.64,1.79.37.8.55,1.8.55,3s-.18,2.21-.55,3.02Z"/><polygon points="18.69 28.92 25.56 28.92 25.56 26.52 18.69 26.52 18.69 22.25 26.09 22.25 26.09 19.85 15.84 19.85 15.84 35.61 26.15 35.61 26.15 33.22 18.69 33.22 18.69 28.92"/><polygon points="36.36 19.85 33.51 19.85 33.51 35.61 43.3 35.61 43.3 33.22 36.36 33.22 36.36 19.85"/><path d="m50.47,19.85l-5.55,15.76h3.05l1.3-3.89h5.92l1.31,3.89h3.05l-5.56-15.76h-3.52Zm-.43,9.58l2.13-6.35h.12l2.13,6.35h-4.39Z"/><polygon points="68.98 19.85 66.13 19.85 66.13 35.61 75.92 35.61 75.92 33.22 68.98 33.22 68.98 19.85"/><rect x="77.97" y="19.85" width="2.85" height="15.76"/><polygon points="93.59 30.6 93.45 30.6 86.04 19.85 83.48 19.85 83.48 35.61 86.34 35.61 86.34 24.88 86.47 24.88 93.89 35.61 96.43 35.61 96.43 19.85 93.59 19.85 93.59 30.6"/><path d="m106.31,29.59h3.63c-.01.72-.17,1.36-.47,1.9-.32.56-.77,1-1.36,1.31-.58.31-1.28.46-2.08.46-.88,0-1.66-.21-2.32-.64-.67-.43-1.19-1.06-1.56-1.89-.37-.83-.56-1.83-.56-3.02s.19-2.18.56-3c.38-.83.9-1.45,1.56-1.88s1.42-.64,2.26-.64c.47,0,.91.06,1.31.18.4.12.75.29,1.06.53.31.24.58.52.8.85.23.33.4.7.53,1.12h2.91c-.12-.77-.37-1.48-.75-2.12-.38-.64-.86-1.2-1.45-1.66-.58-.47-1.25-.83-2.01-1.08-.75-.26-1.57-.38-2.44-.38-1.03,0-1.99.18-2.86.55-.88.36-1.64.9-2.29,1.6-.65.7-1.16,1.55-1.52,2.55-.36,1-.54,2.14-.54,3.41,0,1.66.31,3.1.92,4.31.62,1.21,1.47,2.14,2.56,2.79,1.1.65,2.37.98,3.82.98,1.3,0,2.46-.26,3.46-.79,1.01-.53,1.8-1.29,2.37-2.28.57-.98.86-2.15.86-3.5v-1.89h-6.39v2.23Z"/><polygon points="117.89 28.92 124.75 28.92 124.75 26.52 117.89 26.52 117.89 22.25 125.28 22.25 125.28 19.85 115.03 19.85 115.03 35.61 125.34 35.61 125.34 33.22 117.89 33.22 117.89 28.92"/><path d="m136.7,29.24c.83-.41,1.46-.98,1.89-1.72.43-.74.65-1.62.65-2.63s-.21-1.89-.64-2.64c-.42-.76-1.04-1.35-1.87-1.77-.82-.42-1.84-.63-3.05-.63h-5.91v15.76h2.85v-5.77h2.9l3.1,5.77h3.19l-3.41-6.25c.1-.04.21-.08.31-.12Zm-6.08-7h2.62c.71,0,1.3.11,1.75.32.45.21.79.51,1.01.91.22.4.33.87.33,1.43s-.11,1.03-.33,1.42c-.22.38-.55.67-1,.87-.45.19-1.03.29-1.74.29h-2.63v-5.23Z"/><rect x="141.42" y="19.85" width="2.85" height="15.76"/><polygon points="149.79 28.92 156.65 28.92 156.65 26.52 149.79 26.52 149.79 22.25 157.19 22.25 157.19 19.85 146.94 19.85 146.94 35.61 157.25 35.61 157.25 33.22 149.79 33.22 149.79 28.92"/></g></g></svg>