<?xml version="1.0" encoding="UTF-8"?><svg id="Calque_2" xmlns="http://www.w3.org/2000/svg" viewBox="0 0 144.9 52.97"><defs><style>.cls-1{fill:#f2e149;}.cls-2{fill:#010101;}</style></defs><g id="Calque_1-2"><g><path d="m15.9,40.29c0-2.6-1.55-3.88-3.77-4.64,1.41-.73,2.71-1.93,2.71-4.26,0-2.98-2.42-4.86-6.24-4.86H.08v18.99h8.79c4.23,0,7.03-1.82,7.03-5.24M3.37,29.5h4.8c2.14,0,3.34.89,3.34,2.44,0,1.76-1.44,2.61-3.58,2.61H3.37v-5.05Zm0,7.87h5.29c2.63,0,3.91.95,3.91,2.58,0,1.74-1.38,2.63-3.66,2.63H3.37v-5.21Zm19.83-10.83h-3.34v18.99h3.34v-18.99Zm15.65,0h-3.42v12.45c0,2.52-1.22,3.72-3.01,3.72-1.6,0-2.71-.81-3.83-2.23l-2.2,2.25c1.25,1.71,3.15,3.07,6.08,3.07,3.75,0,6.38-2.22,6.38-6.73v-12.54Zm13.64,19.32c5.83,0,9.96-4.48,9.96-9.85s-4.07-9.79-9.9-9.79-9.96,4.48-9.96,9.85,4.07,9.8,9.9,9.8m0-16.58c3.77,0,6.46,3.07,6.46,6.78s-2.63,6.73-6.4,6.73-6.46-3.07-6.46-6.78,2.63-6.73,6.4-6.73m24.98,9.06c2.66-.73,4.53-2.63,4.53-5.78,0-3.72-2.69-6.02-7.05-6.02h-8.47v18.99h3.34v-6.62h4.18l4.67,6.62h3.93l-5.13-7.19Zm-7.65-2.39v-6.38h4.86c2.47,0,3.93,1.09,3.93,3.18,0,1.95-1.52,3.2-3.91,3.2h-4.88Zm28.67,9.58h3.34v-18.99h-3.34v7.9h-9.06v-7.9h-3.34v18.99h3.34v-8h9.06v8Zm17.03.33c3.55,0,5.72-1.3,7.71-3.37l-2.14-2.17c-1.63,1.52-3.12,2.47-5.45,2.47-3.64,0-6.27-3.04-6.27-6.78s2.63-6.73,6.27-6.73c2.17,0,3.8.95,5.32,2.36l2.14-2.47c-1.82-1.74-3.93-2.96-7.43-2.96-5.75,0-9.8,4.42-9.8,9.85s4.13,9.8,9.66,9.8m14.94-4.91h8.98l1.93,4.59h3.53l-8.36-19.13h-3.09l-8.36,19.13h3.42l1.95-4.59Zm4.48-10.56l3.28,7.6h-6.54l3.26-7.6Zm-78.17,6.68c-.35,0-.61-.12-.88-.36l-.18.21c.31.27.64.41,1.04.41.51,0,.87-.29.87-.73,0-.39-.26-.6-.83-.73-.56-.12-.69-.26-.69-.5s.21-.42.54-.42c.26,0,.5.08.74.28l.17-.22c-.26-.21-.53-.31-.9-.31-.49,0-.84.29-.84.7s.27.61.86.74c.54.11.67.25.67.49,0,.26-.23.44-.57.44m-7.32-1.52c0-.51-.38-.82-.96-.82h-.96v2.56h.29v-.9h.62c.54,0,1.01-.29,1.01-.84m-1.63-.55h.65c.41,0,.69.19.69.56,0,.34-.28.57-.7.57h-.63v-1.13Zm7.42-.27h-.29v2.56h.29v-2.56Zm-5.55,2.56l.3-.68h1.39l.3.68h.31l-1.17-2.58h-.27l-1.17,2.58h.3Zm1-2.24l.58,1.3h-1.17l.58-1.3Zm1.99,1.25h.73l.74.99h.35l-.79-1.04c.4-.07.69-.32.69-.75,0-.46-.36-.76-.92-.76h-1.1v2.56h.29v-.99Zm0-1.3h.79c.41,0,.66.19.66.51s-.27.53-.66.53h-.79v-1.04Z"/><polygon points="0 48.89 0 49.16 1.21 49.16 1.21 52.94 1.51 52.94 1.51 49.16 2.72 49.16 2.72 48.89 0 48.89"/><polygon points="7.27 48.89 7.27 50.76 5.16 50.76 5.16 48.89 4.85 48.89 4.85 52.94 5.16 52.94 5.16 51.03 7.27 51.03 7.27 52.94 7.58 52.94 7.58 48.89 7.27 48.89"/><polygon points="10.16 48.89 10.16 52.94 12.62 52.94 12.62 52.66 10.47 52.66 10.47 51.03 12.3 51.03 12.3 50.76 10.47 50.76 10.47 49.16 12.62 49.16 12.62 48.89 10.16 48.89"/><rect x="17.68" y="48.89" width=".31" height="4.05"/><polygon points="23.22 48.89 23.22 52.4 20.88 48.89 20.57 48.89 20.57 52.94 20.88 52.94 20.88 49.42 23.22 52.94 23.52 52.94 23.52 48.89 23.22 48.89"/><polygon points="25.65 48.89 25.65 49.16 26.86 49.16 26.86 52.94 27.17 52.94 27.17 49.16 28.38 49.16 28.38 48.89 25.65 48.89"/><polygon points="30.51 48.89 30.51 52.94 32.96 52.94 32.96 52.66 30.82 52.66 30.82 51.03 32.65 51.03 32.65 50.76 30.82 50.76 30.82 49.16 32.96 49.16 32.96 48.89 30.51 48.89"/><path d="m37.63,52.94l-.97-1.86h-1.11v1.86h-.31v-4.05h1.54c.66,0,1.16.38,1.16,1.09,0,.6-.36.99-.93,1.09l.98,1.87h-.36Zm-.89-3.77h-1.19v1.64h1.19c.52,0,.89-.26.89-.82s-.38-.82-.89-.82"/><polygon points="42.96 48.89 42.96 52.4 40.62 48.89 40.31 48.89 40.31 52.94 40.62 52.94 40.62 49.42 42.96 52.94 43.26 52.94 43.26 48.89 42.96 48.89"/><path d="m46.93,49.3l.85,2.38h-1.69l.85-2.38Zm-.14-.41l-1.49,4.05h.33l.35-.98h1.89l.35.98h.33l-1.49-4.05h-.27Z"/><polygon points="49.8 48.89 49.8 49.16 51.01 49.16 51.01 52.94 51.32 52.94 51.32 49.16 52.53 49.16 52.53 48.89 49.8 48.89"/><rect x="54.66" y="48.89" width=".31" height="4.05"/><path d="m59.79,52.56c-.27.27-.63.42-1.01.42s-.74-.15-1.01-.42c-.37-.37-.37-.73-.37-1.64s0-1.27.37-1.64c.27-.27.63-.42,1.01-.42s.74.15,1.01.42c.37.37.38.73.38,1.64s0,1.27-.38,1.64m-.24-3.11c-.2-.2-.48-.31-.77-.31s-.56.11-.77.31c-.29.29-.31.6-.31,1.47s.02,1.18.31,1.47c.2.2.48.31.77.31s.56-.11.77-.31c.29-.29.31-.6.31-1.47s-.02-1.18-.31-1.47"/><polygon points="65.23 48.89 65.23 52.4 62.89 48.89 62.59 48.89 62.59 52.94 62.89 52.94 62.89 49.42 65.23 52.94 65.54 52.94 65.54 48.89 65.23 48.89"/><path d="m69.2,49.3l.85,2.38h-1.69l.85-2.38Zm-.14-.41l-1.49,4.05h.33l.35-.98h1.89l.35.98h.33l-1.49-4.05h-.27Z"/><polygon points="72.87 48.89 72.87 52.94 75.33 52.94 75.33 52.66 73.18 52.66 73.18 48.89 72.87 48.89"/><path d="m80.68,52.97c-.36,0-.65-.11-.89-.35l.21-.21c.15.15.32.28.68.28.58,0,.9-.37.9-1.02v-2.79h.31v2.85c0,.74-.47,1.23-1.21,1.23"/><polygon points="84.41 48.89 84.41 52.94 86.86 52.94 86.86 52.66 84.72 52.66 84.72 51.03 86.55 51.03 86.55 50.76 84.72 50.76 84.72 49.16 86.86 49.16 86.86 48.89 84.41 48.89"/><polygon points="92.87 48.89 92.01 52.41 91.07 48.89 90.75 48.89 89.81 52.41 88.96 48.89 88.63 48.89 89.64 52.94 89.96 52.94 90.91 49.41 91.87 52.94 92.18 52.94 93.19 48.89 92.87 48.89"/><polygon points="95.26 48.89 95.26 52.94 97.71 52.94 97.71 52.66 95.57 52.66 95.57 51.03 97.4 51.03 97.4 50.76 95.57 50.76 95.57 49.16 97.71 49.16 97.71 48.89 95.26 48.89"/><polygon points="99.99 48.89 99.99 52.94 102.45 52.94 102.45 52.66 100.3 52.66 100.3 48.89 99.99 48.89"/><polygon points="104.58 48.89 104.58 52.94 107.04 52.94 107.04 52.66 104.89 52.66 104.89 48.89 104.58 48.89"/><polygon points="109.17 48.89 109.17 52.94 111.62 52.94 111.62 52.66 109.47 52.66 109.47 51.03 111.3 51.03 111.3 50.76 109.47 50.76 109.47 49.16 111.62 49.16 111.62 48.89 109.17 48.89"/><path d="m116.29,52.94l-.97-1.86h-1.11v1.86h-.31v-4.05h1.54c.66,0,1.16.38,1.16,1.09,0,.6-.36.99-.93,1.09l.98,1.87h-.36Zm-.89-3.77h-1.19v1.64h1.19c.52,0,.89-.26.89-.82s-.38-.82-.89-.82"/><polygon points="120.77 48.89 119.76 50.94 118.73 48.89 118.4 48.89 119.6 51.26 119.6 52.94 119.9 52.94 119.9 51.26 121.1 48.89 120.77 48.89"/><path d="m126.91,52.97c-.6,0-.98-.17-1.35-.53l.22-.22c.36.36.66.48,1.15.48.64,0,1.04-.31,1.04-.84,0-.24-.07-.44-.22-.57-.15-.13-.26-.17-.59-.22l-.47-.07c-.31-.05-.55-.15-.72-.3-.22-.18-.32-.43-.32-.74,0-.68.48-1.11,1.26-1.11.5,0,.82.14,1.17.44l-.2.2c-.25-.22-.5-.37-.98-.37-.59,0-.94.32-.94.84,0,.23.07.41.21.53.14.12.38.22.6.25l.44.07c.38.06.55.13.72.27.22.18.35.46.35.78,0,.68-.52,1.12-1.36,1.12"/><polygon points="132.99 48.89 132.99 50.76 130.88 50.76 130.88 48.89 130.57 48.89 130.57 52.94 130.88 52.94 130.88 51.03 132.99 51.03 132.99 52.94 133.29 52.94 133.29 48.89 132.99 48.89"/><path d="m138.12,52.56c-.27.27-.63.42-1.01.42s-.74-.15-1.01-.42c-.37-.37-.38-.73-.38-1.64s0-1.27.38-1.64c.27-.27.63-.42,1.01-.42s.74.15,1.01.42c.37.37.38.73.38,1.64s0,1.27-.38,1.64m-.24-3.11c-.2-.2-.48-.31-.77-.31s-.56.11-.77.31c-.29.29-.31.6-.31,1.47s.02,1.18.31,1.47c.2.2.48.31.77.31s.56-.11.77-.31c.29-.29.31-.6.31-1.47s-.02-1.18-.31-1.47"/><polygon points="144.58 48.89 143.73 52.41 142.78 48.89 142.47 48.89 141.52 52.41 140.67 48.89 140.34 48.89 141.36 52.94 141.67 52.94 142.62 49.41 143.58 52.94 143.89 52.94 144.9 48.89 144.58 48.89"/><g><path class="cls-2" d="m7.62,13.12c.69.4,1.23.98,1.61,1.74.39.76.58,1.65.58,2.68s-.19,1.9-.58,2.66c-.39.76-.93,1.34-1.62,1.75-.69.41-1.48.61-2.37.61-1,0-1.85-.26-2.55-.77-.69-.51-1.17-1.2-1.44-2.05v2.69H0v-13.28h1.26v6.17c.26-.85.74-1.53,1.44-2.05.69-.51,1.54-.77,2.55-.77.9,0,1.69.2,2.38.6Zm-4.59,1c-.56.32-.99.78-1.3,1.37-.31.59-.47,1.28-.47,2.05s.16,1.46.47,2.05c.31.59.74,1.05,1.3,1.37.56.32,1.18.48,1.87.48,1.11,0,2-.35,2.66-1.05s.99-1.65.99-2.86-.33-2.16-.99-2.86c-.66-.7-1.54-1.05-2.66-1.05-.69,0-1.32.16-1.87.48Z"/><path class="cls-2" d="m18.57,20.86c.6-.44.96-1.04,1.08-1.79h1.33c-.18,1.04-.68,1.88-1.49,2.53-.81.65-1.84.97-3.09.97-.93,0-1.76-.2-2.48-.6-.72-.4-1.29-.98-1.69-1.74-.41-.76-.61-1.65-.61-2.68s.2-1.92.61-2.68c.41-.76.97-1.34,1.69-1.74.72-.4,1.55-.6,2.48-.6s1.79.2,2.48.6c.7.4,1.23.94,1.6,1.61.36.67.55,1.4.55,2.19,0,.33-.02.64-.07.91h-8.11c.01.83.18,1.52.51,2.07s.76.97,1.28,1.23c.53.26,1.09.39,1.7.39.89,0,1.63-.22,2.22-.66Zm-3.91-6.92c-.53.26-.95.67-1.28,1.21-.33.54-.51,1.22-.53,2.04h6.92c.05-.8-.08-1.48-.39-2.03-.31-.55-.73-.96-1.26-1.22-.53-.26-1.1-.39-1.72-.39s-1.21.13-1.74.39Z"/></g><g><path class="cls-1" d="m30.9,13.12c.69.4,1.23.98,1.61,1.74.39.76.58,1.65.58,2.68s-.19,1.9-.58,2.66c-.39.76-.93,1.34-1.62,1.75-.69.41-1.48.61-2.37.61-1,0-1.85-.26-2.55-.77-.69-.51-1.17-1.2-1.44-2.05v2.69h-1.26v-13.28h1.26v6.17c.26-.85.74-1.53,1.44-2.05.69-.51,1.54-.77,2.55-.77.9,0,1.69.2,2.38.6Zm-4.59,1c-.56.32-.99.78-1.3,1.37-.31.59-.47,1.28-.47,2.05s.16,1.46.47,2.05c.31.59.74,1.05,1.3,1.37.56.32,1.18.48,1.87.48,1.11,0,2-.35,2.66-1.05.66-.7.99-1.65.99-2.86s-.33-2.16-.99-2.86c-.66-.7-1.54-1.05-2.66-1.05-.69,0-1.32.16-1.87.48Z"/><path class="cls-1" d="m38.02,13.04c.63-.38,1.41-.57,2.31-.57v1.36h-.41c-.94,0-1.73.25-2.35.76s-.93,1.34-.93,2.48v5.36h-1.27v-9.8h1.27v2.03c.29-.71.75-1.25,1.38-1.63Z"/><path class="cls-1" d="m41.97,9.11c.17-.16.4-.23.67-.23s.5.08.66.23c.17.16.25.37.25.63s-.08.45-.25.61c-.17.16-.39.23-.66.23s-.5-.08-.67-.23c-.17-.16-.26-.36-.26-.61s.09-.47.26-.63Zm1.3,3.53v9.8h-1.27v-9.8h1.27Z"/><path class="cls-1" d="m47.27,9.16v13.28h-1.27v-13.28h1.27Z"/><path class="cls-1" d="m51.27,9.16v13.28h-1.27v-13.28h1.27Z"/><path class="cls-1" d="m53.97,9.11c.17-.16.4-.23.67-.23s.5.08.66.23c.17.16.25.37.25.63s-.08.45-.25.61c-.17.16-.39.23-.66.23s-.5-.08-.67-.23c-.17-.16-.26-.36-.26-.61s.09-.47.26-.63Zm1.3,3.53v9.8h-1.27v-9.8h1.27Z"/><path class="cls-1" d="m64.67,13.29c.7.51,1.18,1.2,1.44,2.05v-2.69h1.24v9.8h-1.24v-2.69c-.26.85-.74,1.53-1.44,2.05-.7.51-1.55.77-2.54.77-.89,0-1.68-.2-2.38-.61s-1.24-.99-1.63-1.75c-.39-.76-.58-1.65-.58-2.66s.19-1.92.58-2.68c.39-.76.93-1.34,1.62-1.74.69-.4,1.49-.6,2.39-.6.99,0,1.84.26,2.54.77Zm-4.86,1.39c-.66.7-1,1.65-1,2.86s.33,2.16,1,2.86c.66.7,1.55,1.05,2.65,1.05.69,0,1.32-.16,1.87-.48.56-.32.99-.78,1.31-1.37.32-.59.48-1.28.48-2.05s-.16-1.46-.48-2.05c-.32-.59-.75-1.05-1.31-1.37-.56-.32-1.18-.48-1.87-.48-1.1,0-1.98.35-2.65,1.05Z"/><path class="cls-1" d="m77.74,13.55c.71.72,1.07,1.79,1.07,3.18v5.7h-1.24v-5.62c0-1.06-.27-1.88-.81-2.45s-1.27-.85-2.21-.85c-.98,0-1.76.31-2.34.94-.58.63-.87,1.55-.87,2.77v5.2h-1.27v-9.8h1.27v2.4c.25-.84.71-1.48,1.36-1.92.66-.44,1.41-.66,2.26-.66,1.14,0,2.06.36,2.77,1.09Z"/><path class="cls-1" d="m85.92,21.33v1.11h-1.17c-.94,0-1.65-.22-2.12-.67-.47-.45-.7-1.2-.7-2.27v-5.76h-1.49v-1.09h1.49v-2.48h1.27v2.48h2.69v1.09h-2.69v5.78c0,.69.13,1.17.38,1.43.25.26.69.39,1.33.39h1Z"/></g><polygon class="cls-2" points="87 4.99 85.26 1.68 85.23 1.62 86.54 5.4 80.85 5.97 86.51 6.39 85.05 9.95 87.07 6.72 90.3 11.66 87.81 6.14 91.58 5.97 87.75 5.61 90.13 0 87 4.99"/></g></g></svg>