<svg width="1670" height="244" viewBox="0 0 1670 244" fill="none" xmlns="http://www.w3.org/2000/svg">
<path d="M0.333496 0.933158C0.333496 1.59982 14.2002 55.1998 31.2668 120.266L62.3335 238.667H84.0668C95.9335 238.667 105.667 238.4 105.667 238C105.667 237.2 151.534 65.0665 153.267 59.4665C153.8 57.4665 154.2 57.3332 155 58.7998C155.534 59.8665 166.334 100.666 179.134 149.733L202.334 238.667L223.534 238.4L244.734 238L277.134 120.666C295 56.1332 309.534 2.53316 309.667 1.59982C309.667 0.266491 305 -0.000175208 288.734 0.266491L267.8 0.666491L246.2 89.8665C234.2 138.933 224.2 179.733 223.8 180.533C223 182.8 223.134 183.333 199.667 91.3332C187.534 43.5998 177.267 3.59982 176.867 2.26649C176.2 0.266491 173.934 -0.000175208 155 -0.000175208C136.067 -0.000175208 133.8 0.266491 133.134 2.26649C132.734 3.59982 122.2 43.5998 109.667 91.3332C85.5335 182.933 85.6668 182.8 84.8668 180.667C84.6002 179.867 74.8668 139.066 63.2668 89.9998L42.0668 0.666491L21.2668 0.266491C9.66683 0.133158 0.333496 0.399825 0.333496 0.933158Z" fill="black"/>
<path d="M324.333 119.333V238.667H343H361.667V188.933C361.667 161.733 362.333 135.2 363 130C366.333 107.066 382.733 91.9998 404.2 91.9998C418.6 91.9998 428.067 97.5998 433.534 109.2L437 116.666L437.4 177.733L437.8 238.667H456.334H475V172.933C475 134.533 474.334 104.933 473.667 101.6C469 81.4665 454.467 67.8665 432.467 63.1998C407.934 57.9998 384.6 64.5332 369.667 80.7998C366.2 84.7998 362.867 87.9998 362.467 87.9998C362.067 87.9998 361.667 68.1332 361.667 43.9998V-0.000175208H343H324.333V119.333Z" fill="black"/>
<path d="M701.667 22.6664V45.1998L711.933 45.5998L722.333 45.9998L721.933 51.3331C720.867 62.9331 714.333 72.1331 705.667 73.9998L701.667 74.9331V84.9331V94.9331L706.067 93.9998C720.067 91.0664 731.933 81.7331 738.467 68.5331L742.333 60.6664L742.733 30.2664L743.133 -0.000232816H722.467H701.667V22.6664Z" fill="black"/>
<path d="M1009.67 119.333V238.667H1029H1048.33V151.333C1048.33 103.333 1048.73 63.9998 1049.4 63.9998C1049.93 63.9998 1074.6 103.333 1104.33 151.333L1158.33 238.667H1179.93H1201.67V119.333V-0.000175208H1182.33H1163V87.5998C1163 162 1162.73 174.933 1161.13 173.333C1160.2 172.267 1135.53 132.8 1106.33 85.5998L1053.27 -0.000175208H1031.53H1009.67V119.333Z" fill="black"/>
<path d="M1597.67 40.6668V66.6668H1583H1568.33V80.6668V94.6668H1583H1597.53L1597.93 155.067L1598.33 215.467L1601.8 222C1603.67 225.867 1607.4 230.267 1610.47 232.267C1619.53 238.8 1639.67 241.467 1661.53 239.2L1669.67 238.267V223.333V208.533L1658.07 208.933C1644.47 209.6 1640.73 208.133 1637.4 201.333C1635.27 197.067 1635 191.6 1635 145.6V94.6668H1652.33H1669.67V80.6668V66.6668H1652.33H1635V40.6668V14.6668H1616.33H1597.67V40.6668Z" fill="black"/>
<path d="M565 63.3332C541 68.2665 520.2 84.1332 509.933 105.333C501.533 122.4 499.8 130.8 499.8 152.667C499.8 174.533 501.533 182.933 509.933 200C524.333 229.467 554.733 245.6 591.666 243.6C641.8 240.8 672.333 206.267 672.333 152.667C672.333 108.8 651.933 77.3332 615.8 65.8665C602.2 61.5999 579.266 60.3999 565 63.3332ZM606.066 96.3999C628.866 107.6 640.466 140.933 632.466 172.4C627.666 190.8 619.266 202.4 605.8 208.933C599.266 212.267 596.866 212.667 585.666 212.667C574.466 212.533 572.2 212.133 565.933 208.933C547.266 199.2 537.533 179.867 537.533 152.667C537.533 125.867 547.266 106.133 564.6 97.1999C572.866 92.9332 577.133 92.1332 588.466 92.5332C596.333 92.7999 600.466 93.7332 606.066 96.3999Z" fill="black"/>
<path d="M807 62.2666C783.133 65.0666 764.066 75.5999 755.666 90.7999C751.933 97.4666 751.666 98.9333 751.666 112C751.666 124.667 752.066 126.667 755.266 132.8C764.2 149.733 778.2 156.8 821.666 166C849.666 172.133 858.6 176.8 861.4 187.067C864.2 197.067 858.333 206.133 846.466 210.267C841.533 212 835.533 212.667 825 212.667C812.6 212.667 809.266 212.133 803.666 209.6C800.066 207.867 795.666 205.2 793.933 203.6C789.8 199.733 785.666 191.6 785.666 187.333V184H766.333C744.333 184 745.666 183.067 748.466 196.267C753.133 218.267 769.4 233.733 795 240.8C807.933 244.4 838.733 244.133 852.466 240.267C873.933 234.4 889 223.333 896.066 208.267C899.133 201.733 899.666 198.933 899.666 188C899.666 176.8 899.266 174.4 895.933 167.733C891.533 158.8 884.6 152.133 874.066 146.933C864.6 142.133 856.866 139.867 830.333 134C797.933 126.933 789 121.6 789 109.867C789 104.667 789.666 103.2 793.8 99.3333C804.6 89.4666 833.4 89.5999 846.6 99.4666C848.866 101.2 851.8 105.333 853 108.667L855.4 114.667H875.133H895L894.066 110.267C887.533 75.4666 853.933 56.9332 807 62.2666Z" fill="black"/>
<path d="M1294.2 63.1999C1264.87 69.8666 1241.53 93.4666 1232.73 125.333C1229 138.933 1229.4 170.533 1233.4 184.667C1237.93 200 1243.67 210 1254.33 220.8C1271 237.6 1292.47 245.2 1319 243.6C1341.13 242.133 1358.33 234.933 1372.33 220.933C1380.6 212.667 1388.73 198.533 1390.47 189.6L1391.4 185.333H1373.4H1355.53L1353.93 189.733C1349.27 202.667 1335.13 211.733 1318.07 212.933C1289.8 214.933 1271.8 199.2 1267.53 168.933L1266.73 162.667H1330.07H1393.53L1394.47 157.867C1395 155.2 1395 148.667 1394.47 143.333C1391.8 114 1377.67 88.3999 1356.07 74.1332C1339.8 63.3332 1313.93 58.6666 1294.2 63.1999ZM1324.6 93.8666C1340.6 98.6666 1352.07 112.933 1355.53 132.267L1356.47 137.333H1311.67H1266.73L1267.67 131.6C1268.73 124.8 1272.6 115.733 1277.13 109.067C1286.47 95.7332 1307.8 88.7999 1324.6 93.8666Z" fill="black"/>
<path d="M1421.93 94.2665C1433 109.6 1446.2 127.6 1451.27 134.266C1456.2 141.066 1460.33 147.333 1460.33 148.133C1460.33 148.933 1445.93 169.6 1428.33 194.133L1396.33 238.667H1418.73H1441L1461.67 207.333C1473 190.133 1482.87 176.267 1483.4 176.4C1483.93 176.533 1493.93 190.533 1505.53 207.333L1526.6 238L1549.67 238.4C1568.2 238.667 1572.47 238.4 1571.4 237.067C1570.73 236.133 1555.8 215.333 1538.47 190.933C1518.87 163.466 1507.27 146 1507.8 144.933C1508.33 144.133 1521.27 126.4 1536.6 105.733C1551.8 84.9332 1564.33 67.7332 1564.33 67.3332C1564.33 66.9332 1554.6 66.6665 1542.73 66.6665L1521 66.7998L1503 92.3998C1493 106.533 1484.33 118 1483.67 117.866C1482.87 117.866 1474.6 106.266 1465 92.2665L1447.8 66.6665H1424.73H1401.67L1421.93 94.2665Z" fill="black"/>
</svg>
