<?xml version="1.0" encoding="UTF-8" standalone="no"?><!DOCTYPE svg PUBLIC "-//W3C//DTD SVG 1.1//EN" "http://www.w3.org/Graphics/SVG/1.1/DTD/svg11.dtd"><svg width="100%" height="100%" viewBox="0 0 440 135" version="1.1" xmlns="http://www.w3.org/2000/svg" xmlns:xlink="http://www.w3.org/1999/xlink" xml:space="preserve" xmlns:serif="http://www.serif.com/" style="fill-rule:evenodd;clip-rule:evenodd;stroke-linejoin:round;stroke-miterlimit:2;"><g id="logo-interfiliere-paris"><rect x="0.105" y="16.794" width="9.413" height="51.96"/><path d="M27.693,33.36l0.431,0l24.484,35.391l8.372,0l0,-51.96l-9.364,0l0,35.421l-0.456,-0l-24.455,-35.421l-8.425,0l0,51.96l9.413,0l0,-35.391Z" style="fill-rule:nonzero;"/><path d="M83.583,68.753l9.338,-0l-0,-44.07l16.06,-0l-0,-7.89l-41.458,0l0,7.89l16.06,-0l0,44.07Z" style="fill-rule:nonzero;"/><path d="M124.955,46.68l22.632,-0l0,-7.89l-22.632,0l0,-14.106l24.381,0l-0,-7.89l-33.793,0l-0,51.96l33.998,-0l-0,-7.893l-24.586,0l0,-14.181Z" style="fill-rule:nonzero;"/><path d="M166.923,24.658l8.627,-0c2.352,-0 4.27,0.346 5.76,1.04c1.487,0.675 2.596,1.674 3.324,2.994c0.727,1.302 1.089,2.874 1.089,4.72c-0,1.843 -0.362,3.398 -1.089,4.667c-0.711,1.253 -1.811,2.208 -3.301,2.867c-1.487,0.643 -3.399,0.965 -5.734,0.965l-8.676,0l0,-17.253Zm20.043,23.088c2.739,-1.337 4.814,-3.222 6.216,-5.658c1.422,-2.453 2.133,-5.346 2.133,-8.676c0,-3.317 -0.704,-6.217 -2.107,-8.702c-1.386,-2.505 -3.441,-4.449 -6.164,-5.838c-2.707,-1.386 -6.057,-2.078 -10.049,-2.078l-19.484,0l-0,51.96l9.412,-0l0,-19.031l9.58,-0l10.208,19.031l10.506,-0l-11.259,-20.606c0.336,-0.137 0.691,-0.248 1.008,-0.402" style="fill-rule:nonzero;"/><path d="M202.549,68.753l9.413,-0l-0,-22.074l21.591,-0l0,-7.89l-21.591,-0l-0,-14.106l23.874,-0l0,-7.89l-33.287,0l-0,51.96Z" style="fill-rule:nonzero;"/><rect x="242.982" y="16.794" width="9.413" height="51.96"/><path d="M270.571,16.793l-9.413,-0l0,51.959l32.296,0l0,-7.889l-22.883,-0l0,-44.07Z" style="fill-rule:nonzero;"/><rect x="300.196" y="16.794" width="9.413" height="51.96"/><path d="M327.786,46.68l22.631,-0l0,-7.89l-22.631,0l-0,-14.106l24.38,0l-0,-7.89l-33.793,0l-0,51.96l33.998,-0l0,-7.893l-24.585,0l-0,-14.181Z" style="fill-rule:nonzero;"/><path d="M338.796,11.668l-5.659,-11.595l-9.005,0l7.789,11.595l6.875,-0Z" style="fill-rule:nonzero;"/><path d="M369.753,24.658l8.627,-0c2.352,-0 4.27,0.346 5.76,1.04c1.487,0.675 2.596,1.674 3.324,2.994c0.727,1.302 1.089,2.874 1.089,4.72c-0,1.843 -0.362,3.398 -1.089,4.667c-0.711,1.253 -1.811,2.208 -3.301,2.867c-1.487,0.643 -3.399,0.965 -5.734,0.965l-8.676,0l0,-17.253Zm20.043,23.088c2.739,-1.337 4.814,-3.222 6.216,-5.658c1.422,-2.453 2.13,-5.346 2.13,-8.676c-0,-3.317 -0.701,-6.217 -2.104,-8.702c-1.386,-2.505 -3.441,-4.449 -6.164,-5.838c-2.707,-1.386 -6.057,-2.078 -10.049,-2.078l-19.484,0l-0,51.96l9.412,-0l0,-19.031l9.58,-0l10.208,19.031l10.506,-0l-11.259,-20.606c0.336,-0.137 0.691,-0.248 1.008,-0.402" style="fill-rule:nonzero;"/><path d="M414.791,60.862l0,-14.181l22.632,-0l0,-7.893l-22.632,-0l0,-14.106l24.384,-0l-0,-7.89l-33.796,0l-0,51.96l33.998,-0l-0,-7.89l-24.586,0Z" style="fill-rule:nonzero;"/><path d="M27.226,103.377c-0.711,1.422 -1.81,2.537 -3.298,3.349c-1.49,0.813 -3.402,1.217 -5.734,1.217l-8.679,0l0,-18.8l8.627,0c2.352,0 4.273,0.398 5.76,1.194c1.507,0.776 2.613,1.869 3.324,3.272c0.727,1.405 1.089,3.026 1.089,4.872c0,1.843 -0.362,3.474 -1.089,4.896m10.681,-4.896c0,-3.3 -0.701,-6.242 -2.107,-8.829c-1.386,-2.606 -3.441,-4.651 -6.164,-6.141c-2.707,-1.487 -6.057,-2.231 -10.046,-2.231l-19.487,-0l-0,51.96l9.412,-0l0,-17.557l9.948,-0c4.009,-0 7.381,-0.737 10.121,-2.208c2.743,-1.488 4.814,-3.526 6.216,-6.116c1.406,-2.586 2.107,-5.548 2.107,-8.878" style="fill-rule:nonzero;"/><path d="M52.368,112.865l7.019,-20.929l0.407,0l7.032,20.929l-14.458,0Zm1.412,-31.588l-18.291,51.96l10.046,-0l4.299,-12.811l19.533,-0l4.305,12.811l10.046,-0l-18.317,-51.96l-11.621,0Z" style="fill-rule:nonzero;"/><path d="M98.546,89.143l8.627,0c2.351,0 4.269,0.346 5.759,1.041c1.488,0.675 2.597,1.673 3.324,2.994c0.727,1.301 1.089,2.873 1.089,4.719c0,1.843 -0.362,3.399 -1.089,4.668c-0.711,1.252 -1.81,2.208 -3.301,2.867c-1.487,0.642 -3.398,0.965 -5.734,0.965l-8.675,0l-0,-17.254Zm20.042,23.089c2.74,-1.337 4.814,-3.222 6.216,-5.659c1.423,-2.453 2.134,-5.345 2.134,-8.676c-0,-3.317 -0.705,-6.216 -2.107,-8.701c-1.387,-2.505 -3.441,-4.449 -6.165,-5.838c-2.707,-1.387 -6.056,-2.078 -10.049,-2.078l-19.484,-0l-0,51.96l9.413,-0l-0,-19.032l9.579,0l10.212,19.032l10.502,-0l-11.259,-20.607c0.336,-0.137 0.692,-0.248 1.008,-0.401" style="fill-rule:nonzero;"/><rect x="134.17" y="81.278" width="9.413" height="51.96"/><path d="M185.635,108.476c-1.439,-1.184 -3.07,-2.166 -4.896,-2.942c-1.81,-0.779 -3.695,-1.396 -5.659,-1.853l-4.873,-1.219c-1.063,-0.251 -2.12,-0.565 -3.17,-0.936c-1.047,-0.372 -2.002,-0.829 -2.867,-1.37c-0.861,-0.561 -1.546,-1.236 -2.054,-2.032c-0.49,-0.793 -0.738,-1.732 -0.738,-2.815c0.02,-1.301 0.398,-2.462 1.145,-3.477c0.744,-1.014 1.817,-1.816 3.219,-2.41c1.406,-0.59 3.089,-0.887 5.049,-0.887c2.792,-0 5.059,0.616 6.801,1.852c1.758,1.233 2.756,2.959 2.994,5.177l9.057,-0c-0.052,-2.929 -0.871,-5.516 -2.463,-7.766c-1.588,-2.267 -3.776,-4.035 -6.568,-5.3c-2.776,-1.289 -6.005,-1.931 -9.694,-1.931c-3.636,-0 -6.891,0.642 -9.768,1.931c-2.873,1.265 -5.15,3.053 -6.823,5.352c-1.657,2.299 -2.485,4.98 -2.485,8.043c-0,3.721 1.233,6.706 3.702,8.956c2.488,2.231 5.87,3.898 10.149,4.997l5.91,1.523c1.863,0.473 3.487,1.014 4.873,1.624c1.403,0.591 2.495,1.334 3.271,2.231c0.78,0.881 1.178,1.996 1.194,3.35c-0.016,1.487 -0.466,2.792 -1.344,3.907c-0.88,1.099 -2.097,1.963 -3.653,2.586c-1.539,0.61 -3.333,0.914 -5.381,0.914c-1.96,-0 -3.738,-0.294 -5.326,-0.887c-1.572,-0.591 -2.851,-1.488 -3.832,-2.688c-0.982,-1.204 -1.54,-2.707 -1.674,-4.517l-9.259,-0c0.134,3.45 1.03,6.376 2.687,8.777c1.677,2.403 3.992,4.23 6.954,5.482c2.974,1.249 6.484,1.876 10.528,1.876c4.162,-0 7.704,-0.643 10.63,-1.928c2.941,-1.301 5.192,-3.102 6.748,-5.404c1.555,-2.316 2.335,-4.997 2.335,-8.043c-0,-2.247 -0.424,-4.211 -1.269,-5.884c-0.845,-1.677 -1.996,-3.105 -3.45,-4.289" style="fill-rule:nonzero;"/></g></svg>